<svg width="47" height="42" viewBox="0 0 47 42" fill="none" xmlns="http://www.w3.org/2000/svg">
<g filter="url(#filter0_d_198_364)">
<path d="M22.4571 6.22174C22.2927 6.34803 21.3266 8.29818 20.1409 10.8959C19.0212 13.3475 18.0039 15.4525 17.8786 15.575C17.7102 15.7397 17.3114 15.8239 16.3049 15.9069C15.5638 15.9688 13.9564 16.1025 12.7343 16.2065C11.5122 16.3093 9.66222 16.4616 8.62473 16.5445C6.83 16.6882 6.72087 16.7129 6.36785 17.046C6.14283 17.259 5.99866 17.5301 6.00001 17.7369C6.0027 17.9808 6.18595 18.2359 6.64406 18.6346C6.99708 18.9404 8.16392 19.8691 9.2351 20.6974C10.3076 21.5258 11.4583 22.3182 11.7911 22.4594C12.167 22.6179 12.679 22.7157 13.1385 22.7182C13.5468 22.7194 14.8187 22.6364 15.968 22.5337C17.1174 22.4321 19.0872 22.2588 20.3471 22.1511L22.6376 21.953C23.0122 22.4037 23.12 22.6191 23.1186 22.7206C23.1173 22.8222 22.9785 23.024 22.8101 23.1664C22.6403 23.31 20.7823 24.3687 18.6803 25.5189C16.5784 26.6705 14.6759 27.7786 14.4522 27.9829C14.2285 28.1872 13.9389 28.5488 13.8082 28.7878C13.6788 29.0267 13.2652 30.4197 12.8906 31.8832C12.5147 33.3468 12.1926 34.6568 12.1738 34.793C12.1562 34.9292 12.1832 35.1942 12.2357 35.3811C12.2977 35.604 12.481 35.7811 12.768 35.895C13.0294 35.9978 13.315 36.0287 13.4753 35.9718C13.6236 35.9185 15.7753 34.7175 18.2586 33.3022C21.0194 31.7285 22.9031 30.7293 23.1092 30.7305C23.3113 30.7317 25.2826 31.7817 28.0272 33.348C31.5156 35.3403 32.7134 35.9656 33.0462 35.9668C33.3076 35.968 33.5933 35.869 33.7536 35.7216C33.9018 35.5854 34.0298 35.3762 34.0379 35.2573C34.046 35.1384 34.0393 34.902 34.0231 34.7311C34.0083 34.5615 33.4558 32.3315 32.7983 29.7783C31.6274 25.2342 31.6072 25.1277 31.8363 24.7996C31.9643 24.6138 33.7065 23.2035 35.7073 21.6645C37.7082 20.1254 39.542 18.6742 39.7832 18.4402C40.0365 18.1938 40.2211 17.8855 40.2211 17.706C40.2211 17.5363 40.0742 17.2429 39.895 17.0559L39.5703 16.7154C29.3679 15.8635 28.5325 15.7645 28.3384 15.575C28.2118 15.4537 27.1945 13.3475 26.0762 10.8959C24.7813 8.05674 23.9352 6.35794 23.7452 6.21679C23.5808 6.0942 23.2871 5.99639 23.0917 6.0001C22.8977 6.00258 22.612 6.10287 22.4571 6.22174Z" fill="#FFCA5A"/>
<path d="M23.0791 5.00098C23.3257 4.99731 23.5635 5.05199 23.7451 5.1123C23.9308 5.17395 24.1496 5.27106 24.3418 5.41406L24.4658 5.52148C24.5781 5.63307 24.6521 5.74778 24.6777 5.78613C24.7415 5.88145 24.8093 5.99471 24.8779 6.11621C25.0168 6.36196 25.1901 6.6941 25.3916 7.09863C25.7961 7.91065 26.337 9.0567 26.9863 10.4805L27.7891 12.2207C28.042 12.7613 28.2766 13.254 28.4795 13.6738C28.6829 14.0946 28.8528 14.4374 28.9775 14.6787C28.9893 14.7015 29.001 14.7228 29.0117 14.7432C29.2467 14.782 29.6396 14.8341 30.3037 14.9023C31.8004 15.0561 34.5486 15.2925 39.6533 15.7188L40.0322 15.75L40.2939 16.0254L40.6172 16.3643L40.7373 16.5C40.8513 16.6409 40.9464 16.7935 41.0195 16.9395C41.1039 17.1077 41.2207 17.3901 41.2207 17.7061C41.2207 18.0728 41.0595 18.3873 40.9561 18.5605C40.8305 18.7708 40.6651 18.9776 40.4805 19.1572L40.4795 19.1582C40.3121 19.3205 39.7381 19.7838 39.0254 20.3477C38.2826 20.9353 37.3205 21.6854 36.3174 22.457C35.3221 23.2226 34.393 23.9548 33.6992 24.5166C33.3517 24.798 33.0675 25.0335 32.8652 25.207C32.8181 25.2475 32.777 25.2839 32.7412 25.3154C32.7489 25.3666 32.758 25.4337 32.7744 25.5186C32.8897 26.1154 33.1761 27.2367 33.7666 29.5283V29.5293C34.0959 30.8078 34.399 32.0066 34.6221 32.9082C34.7335 33.3586 34.8262 33.7373 34.8916 34.0156C34.9242 34.1542 34.9511 34.2718 34.9707 34.3623C34.9832 34.4198 35.0109 34.5449 35.0195 34.6436H35.0186C35.0374 34.8462 35.048 35.1362 35.0352 35.3252C35.0143 35.6309 34.876 35.882 34.8008 36.0049C34.7056 36.1603 34.5796 36.3211 34.4307 36.458C34.0492 36.8085 33.5031 36.9677 33.043 36.9658V36.9668H33.041V36.9658C32.7346 36.9643 32.4282 36.8445 32.2246 36.7588C31.973 36.6529 31.654 36.4977 31.2578 36.291C30.4618 35.8756 29.2744 35.2123 27.5312 34.2168C26.1636 33.4363 24.9938 32.7871 24.1445 32.335C23.7187 32.1083 23.3814 31.9356 23.1436 31.8213C23.1298 31.8147 23.1163 31.8088 23.1035 31.8027C23.0962 31.8062 23.0886 31.8099 23.0811 31.8135C22.852 31.9222 22.5262 32.089 22.1104 32.3096C21.2812 32.7493 20.1298 33.3866 18.7539 34.1709C17.5104 34.8796 16.3486 35.5349 15.4785 36.0205C15.0439 36.2631 14.68 36.4647 14.4141 36.6094C14.2816 36.6814 14.1701 36.7417 14.085 36.7861C14.0361 36.8117 13.9126 36.8775 13.8135 36.9131L13.8105 36.9141C13.5301 37.0137 13.2481 37.0086 13.0518 36.9873C12.8353 36.9638 12.612 36.9076 12.4023 36.8252L12.3994 36.8242C11.9266 36.6365 11.4445 36.2676 11.2725 35.6494V35.6484C11.1962 35.3755 11.1422 34.9718 11.1816 34.665L11.1836 34.6562C11.1964 34.5638 11.2348 34.3974 11.2676 34.2578C11.3074 34.0881 11.3624 33.8619 11.4277 33.5967C11.5585 33.0655 11.7333 32.3689 11.9219 31.6348C12.1118 30.8926 12.312 30.1663 12.4824 29.5918C12.5674 29.3051 12.6468 29.0502 12.7148 28.8477C12.772 28.6774 12.848 28.4605 12.9287 28.3115L12.9307 28.3076C13.1203 27.9609 13.4821 27.5138 13.7773 27.2441C13.9173 27.1163 14.1721 26.9556 14.3838 26.8242C14.6376 26.6667 14.9714 26.4677 15.3584 26.2422C16.1337 25.7904 17.1431 25.2207 18.2002 24.6416C19.2432 24.0708 20.2243 23.5229 20.9658 23.1006L20.4336 23.1475H20.4326C19.1744 23.255 17.2051 23.4287 16.0557 23.5303L16.0547 23.5293C14.9118 23.6314 13.5971 23.7191 13.1357 23.7178H13.1328C12.5596 23.7146 11.9149 23.5969 11.4023 23.3809L11.4004 23.3799C11.1218 23.2617 10.6625 22.9623 10.2227 22.6592C9.74364 22.3291 9.17339 21.9135 8.62402 21.4893L8.62305 21.4883C7.55545 20.6627 6.3668 19.7177 5.98926 19.3906L5.9873 19.3887C5.73922 19.1727 5.51002 18.9494 5.33887 18.7109C5.15916 18.4605 5.00434 18.1391 5 17.748V17.7432C4.99622 17.1471 5.35402 16.6285 5.68066 16.3193L5.68164 16.3184C5.77749 16.2279 5.91996 16.0969 6.1123 15.9844C6.31384 15.8665 6.52099 15.7964 6.73828 15.748C7.11958 15.6632 7.68361 15.6168 8.54492 15.5479C9.58044 15.465 11.4283 15.3126 12.6494 15.21C13.8725 15.1059 15.4813 14.972 16.2217 14.9102H16.2227C16.6997 14.8708 16.9923 14.8332 17.1748 14.7969C17.1936 14.7614 17.2165 14.7228 17.2393 14.6787C17.3639 14.4371 17.533 14.0945 17.7363 13.6738C18.1424 12.8339 18.6738 11.7014 19.2314 10.4805C19.8269 9.17586 20.3697 8.02897 20.7861 7.18848C20.9937 6.76949 21.1735 6.41802 21.3154 6.15918C21.3856 6.03111 21.4534 5.91389 21.5137 5.81836C21.5433 5.77135 21.5785 5.71755 21.6172 5.66602C21.6408 5.6345 21.7223 5.52502 21.8477 5.42871H21.8486C22.0362 5.28482 22.2507 5.18567 22.4297 5.12305C22.6063 5.06129 22.835 5.00501 23.0723 5.00098C23.0734 5.00095 23.075 5.001 23.0762 5.00098L23.0791 5V5.00098ZM29.1436 14.9863C29.1431 14.9856 29.1421 14.983 29.1396 14.9795C29.1391 14.9787 29.1384 14.9776 29.1377 14.9766L29.1436 14.9863Z" stroke="white" stroke-width="2"/>
</g>
<defs>
<filter id="filter0_d_198_364" x="0" y="0" width="46.2212" height="42" filterUnits="userSpaceOnUse" color-interpolation-filters="sRGB">
<feFlood flood-opacity="0" result="BackgroundImageFix"/>
<feColorMatrix in="SourceAlpha" type="matrix" values="0 0 0 0 0 0 0 0 0 0 0 0 0 0 0 0 0 0 127 0" result="hardAlpha"/>
<feOffset/>
<feGaussianBlur stdDeviation="2"/>
<feComposite in2="hardAlpha" operator="out"/>
<feColorMatrix type="matrix" values="0 0 0 0 1 0 0 0 0 1 0 0 0 0 1 0 0 0 0.53 0"/>
<feBlend mode="normal" in2="BackgroundImageFix" result="effect1_dropShadow_198_364"/>
<feBlend mode="normal" in="SourceGraphic" in2="effect1_dropShadow_198_364" result="shape"/>
</filter>
</defs>
</svg>
