<svg width="73" height="74" viewBox="0 0 73 74" fill="none" xmlns="http://www.w3.org/2000/svg">
<g filter="url(#filter0_f_150_60)">
<ellipse cx="34.999" cy="57.5004" rx="22" ry="2.5" fill="#75ABD0"/>
</g>
<g filter="url(#filter1_dii_150_60)">
<path d="M20.219 21.7226C20.4162 21.444 20.6345 21.1691 20.8906 20.9309C20.8941 20.9262 20.8977 20.9215 20.9012 20.9168C20.9025 20.9112 20.9009 20.905 20.8965 20.9007C20.8891 20.8935 20.8896 20.8816 20.8976 20.8751C20.9287 20.8496 20.9602 20.8249 20.9922 20.8011C22.5685 18.8737 26.2435 18.0559 28.4503 17.7437C34.9062 16.7757 41.9017 16.9655 49.1512 18.337C51.2289 18.73 53.6311 19.4062 55.2075 21.296C56.6461 23.0326 56.8072 25.1089 56.7955 26.9077C56.7733 31.2773 56.3465 35.2852 55.4293 39.2054C54.4848 43.26 54.09 47.1021 51.8323 50.3859C51.6352 50.6646 51.4168 50.9394 51.1608 51.1777C51.1572 51.1824 51.1537 51.187 51.1502 51.1917C51.1489 51.1974 51.1505 51.2035 51.1549 51.2078C51.1622 51.215 51.1617 51.227 51.1538 51.2335C51.1227 51.259 51.0911 51.2836 51.0591 51.3074C49.4828 53.2348 45.8078 54.0526 43.6011 54.3649C37.1452 55.3328 30.1497 55.143 22.9001 53.7715C20.8225 53.3785 18.4202 52.7024 16.8439 50.8125C15.4053 49.0759 15.2442 46.9996 15.2559 45.2008C15.2781 40.8312 15.7048 36.8233 16.622 32.9031C17.5666 28.8485 17.9614 25.0064 20.219 21.7226Z" fill="url(#paint0_linear_150_60)"/>
</g>
<path d="M19.039 18.8265C20.3093 17.4021 22.0999 16.5645 23.5714 16.0523C25.194 15.4875 26.8572 15.1726 28.0594 15.0024L28.0585 15.0034C34.8479 13.9882 42.1493 14.1965 49.6606 15.6174L49.6616 15.6164C51.8038 16.0216 55.0834 16.8294 57.3298 19.5226L57.3356 19.5302C59.4376 22.0679 59.5717 25.0172 59.5592 26.9246C59.5359 31.4699 59.0916 35.687 58.1209 39.8359L58.119 39.8359C57.7124 41.5819 57.2916 43.9241 56.7944 45.7951C56.2521 47.8358 55.4853 49.9514 54.1089 51.9534L54.0995 51.9688L54.0881 51.9841C53.9076 52.2393 53.6781 52.5387 53.397 52.8435C53.284 53.0001 53.1537 53.1469 53.0042 53.2817C51.7339 54.7054 49.9439 55.5428 48.4728 56.0549C46.8501 56.6197 45.187 56.9346 43.9848 57.1047L43.9838 57.1038C37.1946 58.1187 29.8936 57.9098 22.3826 56.4889C20.2404 56.0837 16.9608 55.2778 14.7144 52.5846L14.7086 52.577C12.6066 50.0394 12.4725 47.09 12.4849 45.1826C12.5068 40.9217 12.8988 36.9498 13.7475 33.0516L13.9233 32.2713C14.3299 30.5252 14.7525 28.1832 15.2497 26.3121C15.792 24.2714 16.5588 22.1559 17.9353 20.1538L17.9447 20.1384L17.956 20.123C18.1363 19.8682 18.3656 19.5691 18.6462 19.2647C18.7591 19.108 18.8896 18.9614 19.039 18.8265ZM28.4472 17.7427C26.2406 18.0549 22.5657 18.873 20.9893 20.8001C20.9572 20.8239 20.9245 20.8491 20.8934 20.8745C20.8859 20.8811 20.8855 20.8933 20.8927 20.9004C20.897 20.9047 20.8988 20.911 20.8976 20.9166C20.8941 20.9211 20.8906 20.9264 20.8872 20.931C20.6313 21.1691 20.4126 21.4438 20.2155 21.7223C17.958 25.0061 17.5633 28.848 16.6188 32.9026L16.4522 33.6389C15.6495 37.3252 15.2733 41.1043 15.2526 45.2007L15.2585 45.8868C15.3012 47.5128 15.5812 49.2924 16.8396 50.8117C18.4158 52.7014 20.8186 53.3775 22.8961 53.7705C30.1456 55.142 37.142 55.3315 43.5979 54.3636C45.8047 54.0513 49.4797 53.2334 51.0558 51.3061C51.0877 51.2824 51.1198 51.258 51.1508 51.2326C51.1584 51.2261 51.1587 51.2139 51.1515 51.2068C51.1471 51.2025 51.1454 51.1962 51.1466 51.1906C51.1501 51.186 51.1535 51.1808 51.157 51.1762C51.4129 50.938 51.6315 50.6635 51.8286 50.3849C54.0862 47.1011 54.4809 43.2592 55.4254 39.2046C56.3426 35.2845 56.7694 31.2761 56.7916 26.9065C56.8026 25.2202 56.6617 23.2903 55.4587 21.6249L55.2045 21.2955C53.8253 19.6418 51.813 18.9175 49.9398 18.499L49.1481 18.3367C41.8987 16.9652 34.9029 16.7748 28.4472 17.7427Z" fill="url(#paint1_linear_150_60)"/>
<path fill-rule="evenodd" clip-rule="evenodd" d="M35.1101 45.3058C35.0688 45.36 35.025 45.4112 34.9792 45.4591L35.1101 45.3058Z" fill="white"/>
<path fill-rule="evenodd" clip-rule="evenodd" d="M34.9792 45.4591L35.1101 45.3058C35.0688 45.36 35.025 45.4112 34.9792 45.4591Z" fill="white"/>
<path d="M46.181 27.3944C45.2949 26.7404 44.0459 26.9188 43.3789 27.7944L33.6364 40.5919L28.5669 34.4446C27.866 33.5954 26.611 33.4662 25.751 34.1545C24.8754 34.8556 24.7431 36.1362 25.4561 37.0016L32.3484 45.3598C33.0272 46.183 34.2624 46.209 34.9792 45.4591L35.1101 45.3058L46.5868 30.2277C47.2654 29.3354 47.0832 28.0608 46.181 27.3944Z" fill="white"/>
<defs>
<filter id="filter0_f_150_60" x="6.99902" y="49.0004" width="56" height="17" filterUnits="userSpaceOnUse" color-interpolation-filters="sRGB">
<feFlood flood-opacity="0" result="BackgroundImageFix"/>
<feBlend mode="normal" in="SourceGraphic" in2="BackgroundImageFix" result="shape"/>
<feGaussianBlur stdDeviation="3" result="effect1_foregroundBlur_150_60"/>
</filter>
<filter id="filter1_dii_150_60" x="0.455371" y="6.33843" width="71.1405" height="67.4317" filterUnits="userSpaceOnUse" color-interpolation-filters="sRGB">
<feFlood flood-opacity="0" result="BackgroundImageFix"/>
<feColorMatrix in="SourceAlpha" type="matrix" values="0 0 0 0 0 0 0 0 0 0 0 0 0 0 0 0 0 0 127 0" result="hardAlpha"/>
<feOffset dy="4"/>
<feGaussianBlur stdDeviation="7.4"/>
<feComposite in2="hardAlpha" operator="out"/>
<feColorMatrix type="matrix" values="0 0 0 0 0.172549 0 0 0 0 0.529412 0 0 0 0 0.929412 0 0 0 0.23 0"/>
<feBlend mode="normal" in2="BackgroundImageFix" result="effect1_dropShadow_150_60"/>
<feBlend mode="normal" in="SourceGraphic" in2="effect1_dropShadow_150_60" result="shape"/>
<feColorMatrix in="SourceAlpha" type="matrix" values="0 0 0 0 0 0 0 0 0 0 0 0 0 0 0 0 0 0 127 0" result="hardAlpha"/>
<feOffset dy="4"/>
<feGaussianBlur stdDeviation="3.75"/>
<feComposite in2="hardAlpha" operator="arithmetic" k2="-1" k3="1"/>
<feColorMatrix type="matrix" values="0 0 0 0 0.496487 0 0 0 0 0.654488 0 0 0 0 0.860577 0 0 0 0.67 0"/>
<feBlend mode="normal" in2="shape" result="effect2_innerShadow_150_60"/>
<feColorMatrix in="SourceAlpha" type="matrix" values="0 0 0 0 0 0 0 0 0 0 0 0 0 0 0 0 0 0 127 0" result="hardAlpha"/>
<feOffset dx="-4" dy="-1"/>
<feGaussianBlur stdDeviation="2"/>
<feComposite in2="hardAlpha" operator="arithmetic" k2="-1" k3="1"/>
<feColorMatrix type="matrix" values="0 0 0 0 1 0 0 0 0 1 0 0 0 0 1 0 0 0 0.38 0"/>
<feBlend mode="normal" in2="effect2_innerShadow_150_60" result="effect3_innerShadow_150_60"/>
</filter>
<linearGradient id="paint0_linear_150_60" x1="52.8508" y1="18.9355" x2="19.2005" y2="53.173" gradientUnits="userSpaceOnUse">
<stop stop-color="#35A3F2"/>
<stop offset="1" stop-color="#38BEF3"/>
</linearGradient>
<linearGradient id="paint1_linear_150_60" x1="24" y1="5.50018" x2="58.9072" y2="75.5354" gradientUnits="userSpaceOnUse">
<stop stop-color="white"/>
<stop offset="1" stop-color="#CDE2FB"/>
</linearGradient>
</defs>
</svg>
