<svg width="40" height="40" viewBox="0 0 40 40" fill="none" xmlns="http://www.w3.org/2000/svg">
<g clip-path="url(#clip0_303_1325)">
<path d="M20 1C30.4934 1 39 9.50657 39 20C39 30.4934 30.4934 39 20 39C9.50657 39 1 30.4934 1 20C1 9.50657 9.50657 1 20 1Z" fill="url(#paint0_linear_303_1325)" stroke="url(#paint1_linear_303_1325)" stroke-width="2"/>
<path d="M28.3481 23.1304H21.0437V28.3478H26.0524C26.654 28.3478 27.0425 28.347 27.3382 28.3229C27.6216 28.2997 27.7267 28.2604 27.7783 28.2341L27.7784 28.2341C27.9746 28.1341 28.1343 27.9744 28.2343 27.7782L28.2343 27.7781C28.2606 27.7265 28.2999 27.6214 28.3231 27.3379C28.3472 27.0423 28.3481 26.6538 28.3481 26.0522V23.1304ZM11.6524 26.0522C11.6524 26.6538 11.6532 27.0423 11.6773 27.3379C11.7005 27.6214 11.7398 27.7265 11.7661 27.7781L11.7661 27.7781C11.8662 27.9745 12.0258 28.1341 12.222 28.234L12.2221 28.2341C12.2737 28.2604 12.3788 28.2997 12.6623 28.3229C12.958 28.347 13.3464 28.3478 13.948 28.3478H18.9567V23.1304H11.6524V26.0522ZM28.3481 19.1652C28.3481 18.5636 28.3472 18.1751 28.3231 17.8795C28.2999 17.596 28.2606 17.4909 28.2343 17.4393L28.2342 17.4392C28.1343 17.243 27.9747 17.0833 27.7783 16.9833H27.7783C27.7267 16.957 27.6216 16.9177 27.3382 16.8945C27.0425 16.8704 26.654 16.8696 26.0524 16.8696H21.0437V21.0435H28.3481V19.1652ZM11.6524 21.0435H18.9567V16.8696H13.948C13.3464 16.8696 12.958 16.8704 12.6623 16.8945C12.3788 16.9177 12.2737 16.957 12.2221 16.9833L12.2221 16.9833C12.0319 17.0802 11.8762 17.233 11.7757 17.421L11.7661 17.4393C11.7398 17.4909 11.7005 17.596 11.6773 17.8795C11.6532 18.1751 11.6524 18.5636 11.6524 19.1652V21.0435ZM26.2611 13.2174C26.2611 12.8023 26.0962 12.4042 25.8027 12.1106C25.5091 11.817 25.1109 11.6522 24.6959 11.6522C23.4501 11.6522 22.5491 12.527 21.8928 13.7203C21.6934 14.0829 21.5321 14.4493 21.4047 14.7826H24.6959C25.1109 14.7826 25.5091 14.6177 25.8027 14.3241C26.0962 14.0306 26.2611 13.6325 26.2611 13.2174ZM13.7393 13.2174C13.7393 13.6325 13.9042 14.0306 14.1978 14.3242C14.4913 14.6177 14.8894 14.7826 15.3046 14.7826H18.5957C18.4683 14.4493 18.3071 14.0829 18.1076 13.7203C17.4513 12.527 16.5504 11.6522 15.3046 11.6522C14.8894 11.6522 14.4913 11.8171 14.1978 12.1106C13.9042 12.4041 13.7393 12.8023 13.7393 13.2174ZM28.3481 13.2174C28.3481 13.7974 28.21 14.3631 27.9523 14.8708C28.2141 14.9183 28.4731 14.9951 28.7258 15.1238L28.7533 15.138C29.3297 15.4389 29.7984 15.912 30.0939 16.492H30.0938C30.295 16.8867 30.3694 17.297 30.4031 17.7095C30.4358 18.1099 30.435 18.598 30.435 19.1652V26.0522C30.435 26.6193 30.4358 27.1075 30.4031 27.5079C30.3694 27.9204 30.2949 28.3306 30.0938 28.7255L30.0938 28.7255C29.7938 29.3145 29.3148 29.7934 28.7258 30.0935L28.7258 30.0935C28.331 30.2948 27.9206 30.3692 27.5081 30.4029C27.1077 30.4356 26.6196 30.4348 26.0524 30.4348H13.948C13.3809 30.4348 12.8927 30.4356 12.4923 30.4029C12.0798 30.3692 11.6696 30.2948 11.2748 30.0936C10.6948 29.7982 10.2217 29.3294 9.92082 28.7531L9.90663 28.7256C9.70544 28.3307 9.63102 27.9204 9.59732 27.5079C9.56461 27.1075 9.56543 26.6193 9.56543 26.0522V19.1652C9.56543 18.598 9.56461 18.1099 9.59732 17.7095C9.63102 17.297 9.70545 16.8867 9.90663 16.4919C10.2067 15.9028 10.6856 15.4239 11.2747 15.1238L11.3117 15.1053C11.5526 14.9877 11.7991 14.916 12.0481 14.8708C11.7904 14.3631 11.6524 13.7974 11.6524 13.2174C11.6524 12.2488 12.0372 11.3198 12.7221 10.6349C13.407 9.95 14.3359 9.56522 15.3046 9.56522C17.7109 9.56522 19.1578 11.2991 19.9363 12.7145C19.958 12.754 19.9793 12.7935 20.0002 12.8329C20.0212 12.7935 20.0424 12.754 20.0642 12.7145C20.8426 11.2991 22.2895 9.56522 24.6959 9.56522C25.6493 9.56522 26.5643 9.93806 27.246 10.603L27.2783 10.6349L27.2784 10.6349C27.9632 11.3198 28.3481 12.2488 28.3481 13.2174Z" fill="url(#paint2_linear_303_1325)"/>
</g>
<defs>
<linearGradient id="paint0_linear_303_1325" x1="20" y1="0" x2="20" y2="40" gradientUnits="userSpaceOnUse">
<stop stop-color="#35A3F2"/>
<stop offset="1" stop-color="#37BDF3"/>
</linearGradient>
<linearGradient id="paint1_linear_303_1325" x1="40" y1="20" x2="6.45279" y2="72.8491" gradientUnits="userSpaceOnUse">
<stop stop-color="white"/>
<stop offset="1" stop-color="#CDE2FB"/>
</linearGradient>
<linearGradient id="paint2_linear_303_1325" x1="30.435" y1="20" x2="12.9321" y2="47.5735" gradientUnits="userSpaceOnUse">
<stop stop-color="white"/>
<stop offset="1" stop-color="#CDE2FB"/>
</linearGradient>
<clipPath id="clip0_303_1325">
<rect width="40" height="40" fill="white"/>
</clipPath>
</defs>
</svg>
