<svg width="74" height="73" viewBox="0 0 74 73" fill="none" xmlns="http://www.w3.org/2000/svg">
<g filter="url(#filter0_dii_150_23)">
<path d="M25.0281 35.4947L33.4826 43.886L30.1022 47.2416L32.1777 49.3004C32.901 50.0179 32.901 51.1812 32.1777 51.8987L31.4143 52.656C30.691 53.3735 29.5183 53.3735 28.795 52.656L24.1836 48.0817L18.7253 53.4961C18.002 54.2136 16.8293 54.2136 16.106 53.4961L15.3423 52.7386C14.6191 52.0212 14.619 50.8581 15.3421 50.1405L20.8008 44.7237L16.1899 40.1518C15.4664 39.4343 15.4663 38.2708 16.1897 37.5532L16.9533 36.7957C17.6764 36.0784 18.8488 36.0782 19.5722 36.7953L21.6453 38.8503L25.0257 35.4947H25.0281ZM15.3407 12.6404C15.3398 11.6245 16.1702 10.8007 17.1944 10.8015L23.8223 10.8071L52.0926 38.8526L54.1681 36.7953C54.8915 36.0782 56.0639 36.0784 56.787 36.7957L57.5512 37.5538C58.2744 38.2712 58.2745 39.4342 57.5514 40.1518L52.9419 44.7261L58.3983 50.1405C59.1214 50.8581 59.1213 52.0212 58.398 52.7386L57.6343 53.4961C56.911 54.2136 55.7383 54.2136 55.015 53.4961L49.5568 48.0817L44.9454 52.656C44.2221 53.3735 43.0494 53.3735 42.326 52.656L41.5621 51.8983C40.839 51.181 40.8388 50.018 41.5617 49.3004L43.6357 47.2416L15.3463 19.1795L15.3407 12.6404ZM49.9252 10.8L56.5517 10.8056C57.5736 10.8064 58.4017 11.6281 58.4023 12.6418L58.406 19.1676L48.7099 28.7835L40.2505 20.3945L49.9252 10.8Z" fill="url(#paint0_linear_150_23)"/>
</g>
<g filter="url(#filter1_f_150_23)">
<ellipse cx="37.3325" cy="54.6661" rx="23.6147" ry="2.29657" fill="#75ABD0"/>
</g>
<path d="M25.7964 33.658L36.1017 43.8867L32.7212 47.2418L33.4881 48.0026C34.9344 49.4375 34.9344 51.7636 33.4881 53.1986L32.7248 53.9557C31.2782 55.3907 28.9324 55.3907 27.4858 53.9557L24.184 50.6804L20.0357 54.7963C18.589 56.2313 16.2433 56.2313 14.7967 54.7963L14.0334 54.0382C12.587 52.6034 12.5863 50.2773 14.0325 48.8423L18.1817 44.7246L14.8808 41.452C13.4339 40.0171 13.434 37.6902 14.8808 36.2551L15.6441 35.497C17.0903 34.0626 19.4354 34.0622 20.8821 35.4961L21.6445 36.2524L24.259 33.658H25.7964ZM24.5909 8.97168L52.0935 36.2551L52.8595 35.4961C54.3063 34.0622 56.6514 34.0625 58.0976 35.497L58.8618 36.2551C60.3082 37.6899 60.3079 40.0169 58.8618 41.452L55.5609 44.7264L59.7083 48.8423C61.1544 50.2772 61.1545 52.6034 59.7083 54.0382L58.945 54.7963C57.4984 56.2312 55.1526 56.2311 53.706 54.7963L49.5568 50.6804L46.2559 53.9557C44.8093 55.3907 42.4635 55.3907 41.0169 53.9557L40.2527 53.1986C38.8065 51.764 38.8062 49.4377 40.2518 48.0026L41.0169 47.2427L13.4953 19.9423L13.489 12.6426C13.4873 10.6109 15.1487 8.96368 17.1969 8.9654L24.5909 8.97168ZM25.0259 35.4952L21.6454 38.8513L19.5726 36.796C18.8492 36.0791 17.6767 36.0797 16.9536 36.7969L16.1903 37.5541L16.0628 37.694C15.4697 38.4158 15.5121 39.4805 16.1903 40.153L20.8016 44.7246L15.3429 50.1412L15.2154 50.2812C14.6224 51.0028 14.665 52.0667 15.3429 52.7392L16.1062 53.4973C16.7843 54.17 17.8576 54.2115 18.5851 53.6229L18.7261 53.4973L24.184 48.0824L28.7953 52.6567C29.4734 53.3293 30.5467 53.3717 31.2742 52.7832L31.4153 52.6567L32.1785 51.8996C32.8566 51.2268 32.8987 50.1622 32.3052 49.4406L32.1785 49.3016L30.103 47.2427L33.4835 43.8867L25.0286 35.4952H25.0259ZM17.195 10.8027C16.1711 10.8018 15.3405 11.6251 15.3411 12.6408L15.3465 19.1806L43.6359 47.2427L41.5622 49.3016L41.4347 49.4406C40.8418 50.1623 40.8843 51.2271 41.5622 51.8996L42.3264 52.6567C43.0045 53.3293 44.0778 53.3717 44.8053 52.7832L44.9463 52.6567L49.5577 48.0824L55.0155 53.4973C55.6937 54.1699 56.767 54.2116 57.4944 53.6229L57.6346 53.4973L58.3988 52.7392C59.1218 52.0218 59.1218 50.8587 58.3988 50.1412L52.9427 44.7273L57.5523 40.153C58.2302 39.4803 58.2722 38.4155 57.6789 37.694L57.5514 37.555L56.7872 36.7969C56.0641 36.0797 54.8924 36.0792 54.169 36.796L52.0935 38.8531L23.8231 10.808L17.195 10.8027ZM56.5539 8.96899C58.5976 8.97072 60.2543 10.6144 60.2554 12.6417L60.259 19.9288L48.7103 31.3821L37.6319 20.3953L49.1589 8.96271L56.5539 8.96899ZM40.2509 20.3953L48.7103 28.7841L58.4069 19.1681L58.4033 12.6426C58.4027 11.6289 57.5739 10.8071 56.552 10.8062L49.9258 10.8009L40.2509 20.3953Z" fill="url(#paint1_linear_150_23)"/>
<defs>
<filter id="filter0_dii_150_23" x="-0.000195503" y="-1.23978e-05" width="73.7406" height="72.8343" filterUnits="userSpaceOnUse" color-interpolation-filters="sRGB">
<feFlood flood-opacity="0" result="BackgroundImageFix"/>
<feColorMatrix in="SourceAlpha" type="matrix" values="0 0 0 0 0 0 0 0 0 0 0 0 0 0 0 0 0 0 127 0" result="hardAlpha"/>
<feOffset dy="4"/>
<feGaussianBlur stdDeviation="7.4"/>
<feComposite in2="hardAlpha" operator="out"/>
<feColorMatrix type="matrix" values="0 0 0 0 0.172549 0 0 0 0 0.529412 0 0 0 0 0.929412 0 0 0 0.23 0"/>
<feBlend mode="normal" in2="BackgroundImageFix" result="effect1_dropShadow_150_23"/>
<feBlend mode="normal" in="SourceGraphic" in2="effect1_dropShadow_150_23" result="shape"/>
<feColorMatrix in="SourceAlpha" type="matrix" values="0 0 0 0 0 0 0 0 0 0 0 0 0 0 0 0 0 0 127 0" result="hardAlpha"/>
<feOffset dy="4"/>
<feGaussianBlur stdDeviation="3.75"/>
<feComposite in2="hardAlpha" operator="arithmetic" k2="-1" k3="1"/>
<feColorMatrix type="matrix" values="0 0 0 0 0.496487 0 0 0 0 0.654488 0 0 0 0 0.860577 0 0 0 1 0"/>
<feBlend mode="normal" in2="shape" result="effect2_innerShadow_150_23"/>
<feColorMatrix in="SourceAlpha" type="matrix" values="0 0 0 0 0 0 0 0 0 0 0 0 0 0 0 0 0 0 127 0" result="hardAlpha"/>
<feOffset dx="-4" dy="-1"/>
<feGaussianBlur stdDeviation="2"/>
<feComposite in2="hardAlpha" operator="arithmetic" k2="-1" k3="1"/>
<feColorMatrix type="matrix" values="0 0 0 0 1 0 0 0 0 1 0 0 0 0 1 0 0 0 0.38 0"/>
<feBlend mode="normal" in2="effect2_innerShadow_150_23" result="effect3_innerShadow_150_23"/>
</filter>
<filter id="filter1_f_150_23" x="7.71777" y="46.3696" width="59.2295" height="16.5931" filterUnits="userSpaceOnUse" color-interpolation-filters="sRGB">
<feFlood flood-opacity="0" result="BackgroundImageFix"/>
<feBlend mode="normal" in="SourceGraphic" in2="BackgroundImageFix" result="shape"/>
<feGaussianBlur stdDeviation="3" result="effect1_foregroundBlur_150_23"/>
</filter>
<linearGradient id="paint0_linear_150_23" x1="58.9405" y1="32.4171" x2="14.7998" y2="32.4171" gradientUnits="userSpaceOnUse">
<stop stop-color="#35A3F2"/>
<stop offset="1" stop-color="#37BDF3"/>
</linearGradient>
<linearGradient id="paint1_linear_150_23" x1="60.7929" y1="32.4176" x2="21.7858" y2="95.0928" gradientUnits="userSpaceOnUse">
<stop stop-color="white"/>
<stop offset="1" stop-color="#CDE2FB"/>
</linearGradient>
</defs>
</svg>
